<svg width="44" height="43" viewBox="0 0 44 43" fill="none" xmlns="http://www.w3.org/2000/svg">
<g clip-path="url(#clip0_7_2414)">
<rect x="1.01562" y="1" width="41" height="41" rx="20.5" stroke="black" stroke-width="2"/>
<path fill-rule="evenodd" clip-rule="evenodd" d="M29.9928 32.68V20.2714L29.5628 19.5343V18.06H25.4471V19.5343L25.0171 20.2714V32.6186H23.9728V20.2714L23.5428 19.5343V18.06H21.5156H19.4271V19.5343L18.9971 20.2714V32.6186H17.9528V20.2714L17.5228 19.5343V18.06H13.4071V19.5343L12.9771 20.2714V32.6186H11.9328V20.2714L11.5028 19.5343V18.06H7.38705V19.5343L6.95705 20.2714H11.5642C11.5642 20.2714 11.6256 20.2714 11.6256 20.3329V32.6186H10.3356V26.66C10.3356 26.1686 9.90563 25.7386 9.4142 25.7386C8.92277 25.7386 8.49277 26.1686 8.49277 26.66V32.6186H5.91277V18.06V17.8757V16.5857C5.91277 16.5857 5.91277 16.5857 5.9742 16.5857H37.0571C37.0571 16.5857 37.1185 16.5857 37.1185 16.6471V32.7414H34.4771V26.7829C34.4771 26.2914 34.0471 25.8614 33.5556 25.8614C33.0642 25.8614 32.6342 26.2914 32.6342 26.7829V32.7414H31.3442V20.4557C31.3442 20.4557 31.3442 20.3943 31.4056 20.3943H36.0128L35.6442 19.5343V18.06H31.5285V19.5343L31.0985 20.2714V32.6186H29.9928V32.68ZM21.5156 0C31.7128 0 40.1899 7.06429 42.4628 16.5857H37.8556L38.2242 17.2614C38.6542 17.2614 42.5856 17.2614 42.5856 17.2614C42.5856 17.3843 42.5856 17.3843 42.6471 17.5071H37.8556L38.5313 18.6743H42.8313C42.9542 19.5957 43.0156 20.5786 43.0156 21.5614C43.0156 24.08 42.5856 26.4757 41.7871 28.6871V20.3943C41.7871 20.3329 41.7256 20.3329 41.7256 20.3329H37.4871C37.4256 20.3329 37.4256 20.3943 37.4256 20.3943V35.9971C37.3028 36.12 37.2413 36.1814 37.1185 36.3043V33.4171H5.91277V36.3043C5.78991 36.1814 5.72848 36.12 5.60563 35.9971V20.3943C5.60563 20.3329 5.60563 20.2714 5.5442 20.2714H1.30562C1.2442 20.2714 1.2442 20.3329 1.2442 20.3943V28.6257C0.445625 26.3529 0.015625 23.9571 0.015625 21.5C0.015625 20.5171 0.0770536 19.5957 0.199911 18.6129H4.56134L5.23705 17.4457H0.384196C0.384196 17.3229 0.384196 17.3229 0.445625 17.2H4.86848L5.23705 16.5857H0.568482C2.84134 7.06429 11.3185 0 21.5156 0ZM34.9071 38.3314C34.0471 39.0071 33.1871 39.6214 32.2042 40.1743V37.4714C32.2042 36.7343 32.8185 36.12 33.4942 36.12C33.8628 36.12 34.1699 36.2429 34.4771 36.4886C34.7228 36.7343 34.8456 37.0414 34.8456 37.41V38.3314H34.9071ZM28.8871 41.71C28.0271 42.0171 27.1056 42.2629 26.1842 42.5086V37.4714C26.1842 36.7343 26.7371 36.1814 27.4128 36.12H27.4742C27.8428 36.12 28.2113 36.2429 28.4571 36.4886C28.7028 36.7343 28.8256 37.0414 28.8256 37.41V41.71H28.8871ZM23.2971 42.9386C23.1128 42.9386 22.9285 42.9386 22.6828 43V37.5943C22.6828 37.2871 22.5599 36.98 22.3142 36.7343C22.0685 36.4886 21.8228 36.3657 21.4542 36.3657C21.1471 36.3657 20.8399 36.4886 20.5942 36.7343C20.3485 36.98 20.2256 37.2257 20.2256 37.5943V43C20.0413 43 19.8571 43 19.6113 42.9386V37.5943C19.6113 37.1029 19.7956 36.6729 20.1642 36.3043C20.4713 35.9971 20.9628 35.7514 21.4542 35.7514C21.9456 35.7514 22.3756 35.9357 22.7442 36.3043C23.0513 36.6114 23.2971 37.1029 23.2971 37.5943V42.9386ZM16.8471 42.5086C15.9256 42.3243 15.0042 42.0171 14.1442 41.71V37.4714C14.1442 37.1029 14.2671 36.7343 14.5128 36.55C14.7585 36.3043 15.0656 36.1814 15.3728 36.1814C15.7413 36.1814 16.1099 36.3043 16.4171 36.55C16.6628 36.7957 16.7856 37.1029 16.7856 37.4714V42.5086H16.8471ZM10.8271 40.1743C9.90563 39.6214 8.9842 39.0071 8.1242 38.3314V37.4714C8.1242 36.7343 8.73848 36.12 9.4142 36.12H9.47563C9.8442 36.12 10.1513 36.2429 10.4585 36.4886C10.7042 36.7343 10.8271 37.0414 10.8271 37.41V40.1743ZM2.5342 21.6229H4.37705V23.4657H2.5342V21.6229ZM38.6542 21.6229H40.4971V23.4657H38.6542V21.6229ZM26.6142 21.6229H28.4571V23.4657H26.6142V21.6229ZM32.6342 21.6229H34.4771V23.4657H32.6342V21.6229ZM20.5942 21.6229H22.4371V23.4657H20.5942V21.6229ZM14.5742 21.6229H16.4171V23.4657H14.5742V21.6229ZM8.5542 21.6229H10.3971V23.4657H8.5542V21.6229ZM25.3242 32.68V20.3943C25.3242 20.3943 25.3242 20.3329 25.3856 20.3329H29.6856C29.6856 20.3329 29.7471 20.3329 29.7471 20.3943V32.68H28.4571V26.7214C28.4571 26.23 28.0271 25.8 27.5356 25.8C27.0442 25.8 26.6142 26.23 26.6142 26.7214V32.68H25.3242ZM23.7271 20.3329L19.3656 20.2714C19.3656 20.2714 19.3042 20.2714 19.3042 20.3329V32.6186H20.5942V26.66C20.5942 26.1686 21.0242 25.7386 21.5156 25.7386C22.0071 25.7386 22.4371 26.1686 22.4371 26.66V32.6186H23.7271V20.3329ZM17.7071 20.3329L13.3456 20.2714C13.3456 20.2714 13.2842 20.2714 13.2842 20.3329V32.6186H14.5742V26.66C14.5742 26.1686 15.0042 25.7386 15.4956 25.7386C15.9871 25.7386 16.4171 26.1686 16.4171 26.66V32.6186H17.7071V20.3329ZM21.5156 6.51143L38.5313 13.8214H34.9685L21.5156 8.04714L8.06277 13.8214C7.07991 13.8214 4.49991 13.8214 4.49991 13.8214L21.5156 6.51143ZM37.0571 15.6643V16.34H21.5156H5.9742V15.6643H21.5156C26.6756 15.6643 31.8971 15.6643 37.0571 15.6643ZM38.5313 14.1286H21.5771H21.5156H4.49991L4.99134 14.7429H21.5156H21.5771H38.0399L38.5313 14.1286ZM11.3799 13.8214H19.0585C19.0585 13.0229 19.4885 12.2857 20.1642 11.8557V13.8214H20.8399V11.4871C21.0856 11.4257 21.3313 11.3643 21.5771 11.3643C21.8228 11.3643 22.0685 11.3643 22.3142 11.4871V13.8214H22.9899V11.8557C23.6042 12.2857 24.0342 13.0229 24.0956 13.8214H31.7742L21.6385 9.52143C18.1371 10.9343 14.7585 12.3471 11.3799 13.8214C11.3185 13.8214 11.3185 13.8214 11.3799 13.8214Z" fill="#1E46DC"/>
<path fill-rule="evenodd" clip-rule="evenodd" d="M8.1235 38.3312V37.4712C8.1235 36.7341 8.73779 36.1198 9.4135 36.1198H9.47493C9.8435 36.1198 10.1506 36.2427 10.4578 36.4884C10.7035 36.7341 10.8264 37.0412 10.8264 37.4098V40.1127C11.8706 40.7269 12.9764 41.2184 14.1435 41.6484V37.4712C14.1435 37.1027 14.2664 36.7341 14.5121 36.5498C14.7578 36.3041 15.0649 36.1812 15.3721 36.1812C15.7406 36.1812 16.1092 36.3041 16.4164 36.5498C16.6621 36.7955 16.7849 37.1027 16.7849 37.4712V42.5084C17.7064 42.6927 18.6892 42.8769 19.6721 42.9384V37.5941C19.6721 37.1027 19.8564 36.6727 20.2249 36.3041C20.5321 35.9969 21.0235 35.7512 21.5149 35.7512C22.0064 35.7512 22.4364 35.9355 22.8049 36.3041C23.1121 36.6112 23.3578 37.1027 23.3578 37.5941V42.9384C24.3406 42.8769 25.2621 42.6927 26.2449 42.5084V37.4712C26.2449 36.7341 26.7978 36.1812 27.4735 36.1198H27.5349C27.9035 36.1198 28.2721 36.2427 28.5178 36.4884C28.7635 36.7341 28.8864 37.0412 28.8864 37.4098V41.6484C30.1149 41.2184 31.0978 40.7269 32.2035 40.1127V37.4098C32.2035 36.6727 32.8178 36.0584 33.4935 36.0584C33.8621 36.0584 34.1692 36.1812 34.4764 36.4269C34.7221 36.6727 34.8449 36.9798 34.8449 37.3484V38.2084C35.6435 37.5941 36.3192 36.9184 37.0564 36.1812V33.2941H5.91208V36.1812C6.58779 37.0412 7.32493 37.7169 8.1235 38.3312ZM29.9921 32.6798V20.2712L29.5621 19.5341V18.0598H25.4464V19.5341L25.0164 20.2712V32.6184H23.9721V20.2712L23.5421 19.5341V18.0598H21.5149H19.4264V19.5341L18.9964 20.2712V32.6184H17.9521V20.2712L17.5221 19.5341V18.0598H13.4064V19.5341L12.9764 20.2712V32.6184H11.9321V20.2712L11.5021 19.5341V18.0598H7.38636V19.5341L6.95636 20.2712H11.5635C11.5635 20.2712 11.6249 20.2712 11.6249 20.3327V32.6184H10.3349V26.6598C10.3349 26.1684 9.90493 25.7384 9.4135 25.7384C8.92208 25.7384 8.49208 26.1684 8.49208 26.6598V32.6184H5.91208V18.0598V17.8755V16.5855C5.91208 16.5855 5.91208 16.5855 5.9735 16.5855H37.0564C37.0564 16.5855 37.1178 16.5855 37.1178 16.6469V32.7412H34.4764V26.7827C34.4764 26.2912 34.0464 25.8612 33.5549 25.8612C33.0635 25.8612 32.6335 26.2912 32.6335 26.7827V32.7412H31.3435V20.4555C31.3435 20.4555 31.3435 20.3941 31.4049 20.3941H36.0121L35.6435 19.5341V18.0598H31.5278V19.5341L31.0978 20.2712V32.6184H29.9921V32.6798ZM42.4621 16.5855C42.5235 16.8312 42.5849 17.0155 42.5849 17.2612H38.2235L37.8549 16.5855H42.4621ZM42.6464 17.4455C42.7078 17.8141 42.7692 18.2441 42.8306 18.6127H38.5306L37.8549 17.4455H42.6464ZM0.444933 17.1998C0.506362 16.9541 0.56779 16.7698 0.56779 16.5241H5.17493L4.86779 17.1998H0.444933ZM0.199219 18.6127C0.260647 18.1827 0.322076 17.8141 0.383504 17.4455H5.17493L4.49922 18.6127H0.199219ZM5.60493 35.9969C3.70065 33.8469 2.16493 31.3284 1.2435 28.5641V20.3941C1.2435 20.3327 1.2435 20.2712 1.30493 20.2712H5.5435C5.60493 20.2712 5.60493 20.3327 5.60493 20.3327V35.9969ZM2.5335 21.6227H4.37636V23.4655H2.5335V21.6227ZM41.7864 28.6255C40.8035 31.3898 39.3292 33.8469 37.3635 35.9969V20.3941C37.3635 20.3327 37.4249 20.3327 37.4249 20.3327H41.6635C41.7249 20.3327 41.7249 20.3941 41.7249 20.3941V28.6255H41.7864ZM38.6535 21.6227H40.4964V23.4655H38.6535V21.6227ZM26.6135 21.6227H28.4564V23.4655H26.6135V21.6227ZM32.6335 21.6227H34.4764V23.4655H32.6335V21.6227ZM20.5935 21.6227H22.4364V23.4655H20.5935V21.6227ZM14.5735 21.6227H16.4164V23.4655H14.5735V21.6227ZM8.5535 21.6227H10.3964V23.4655H8.5535V21.6227ZM25.3235 32.6798V20.3941C25.3235 20.3941 25.3235 20.3327 25.3849 20.3327H29.6849C29.6849 20.3327 29.7464 20.3327 29.7464 20.3941V32.6798H28.4564V26.7212C28.4564 26.2298 28.0264 25.7998 27.5349 25.7998C27.0435 25.7998 26.6135 26.2298 26.6135 26.7212V32.6798H25.3235ZM23.7264 20.3327L19.3649 20.2712C19.3649 20.2712 19.3035 20.2712 19.3035 20.3327V32.6184H20.5935V26.6598C20.5935 26.1684 21.0235 25.7384 21.5149 25.7384C22.0064 25.7384 22.4364 26.1684 22.4364 26.6598V32.6184H23.7264V20.3327ZM17.7064 20.3327L13.3449 20.2712C13.3449 20.2712 13.2835 20.2712 13.2835 20.3327V32.6184H14.5735V26.6598C14.5735 26.1684 15.0035 25.7384 15.4949 25.7384C15.9864 25.7384 16.4164 26.1684 16.4164 26.6598V32.6184H17.7064V20.3327ZM21.5149 6.51123L38.5306 13.8212H34.9678L21.5149 8.04694L8.06208 13.8212C7.07922 13.8212 4.49922 13.8212 4.49922 13.8212L21.5149 6.51123ZM37.0564 15.6641V16.3398H21.5149H5.9735V15.6641H21.5149C26.6749 15.6641 31.8964 15.6641 37.0564 15.6641ZM38.5306 14.1284H21.5764H21.5149H4.49922L4.99065 14.7427H21.5149H21.5764H38.0392L38.5306 14.1284ZM11.3792 13.8212H19.0578C19.0578 12.9612 19.4878 12.2855 20.1635 11.8555V13.8212H20.8392V11.4869C21.0849 11.4255 21.3306 11.3641 21.5764 11.3641C21.8221 11.3641 22.0678 11.3641 22.3135 11.4869V13.8212H22.9892V11.8555C23.6035 12.2855 24.0335 13.0227 24.0949 13.8212H31.7735L21.6378 9.52123C18.1364 10.9341 14.7578 12.3469 11.3792 13.8212C11.3178 13.8212 11.3178 13.8212 11.3792 13.8212ZM22.6821 42.9384V37.5327C22.6821 37.2255 22.5592 36.9184 22.3135 36.6727C22.0678 36.4269 21.8221 36.3041 21.4535 36.3041C21.1464 36.3041 20.8392 36.4269 20.5935 36.6727C20.3478 36.9184 20.2249 37.1641 20.2249 37.5327V42.9384C20.2249 42.9384 21.3306 42.9998 21.3921 42.9998C21.9449 42.9998 22.3135 42.9998 22.6821 42.9384Z" fill="white"/>
</g>
<defs>
<clipPath id="clip0_7_2414">
<rect x="0.015625" width="43" height="43" rx="21.5" fill="white"/>
</clipPath>
</defs>
</svg>
